<?xml version="1.0" standalone="no"?>
<!DOCTYPE svg PUBLIC "-//W3C//DTD SVG 1.1//EN" "http://www.w3.org/Graphics/SVG/1.1/DTD/svg11.dtd">
<svg width="160mm" height="160mm" viewBox="-80 -80 160 160" xmlns="http://www.w3.org/2000/svg" version="1.1">
<title>OpenSCAD Model</title>
<path d="
M 80,-80 L -80,-80 L -80,80 L 80,80 z
M -1.22166,69.9893 L -2.44296,69.9574 L -3.66351,69.9041 L -4.88295,69.8295 L -6.10089,69.7336 L -7.31699,69.6165
 L -8.53085,69.4782 L -9.74211,69.3188 L -10.9504,69.1382 L -12.1554,68.9365 L -13.3566,68.7139 L -14.5538,68.4703
 L -15.7466,68.2059 L -16.9345,67.9207 L -18.1173,67.6148 L -19.2946,67.2883 L -20.466,66.9413 L -21.6312,66.5739
 L -22.7898,66.1863 L -23.9414,65.7785 L -25.0858,65.3506 L -26.2225,64.9029 L -27.3512,64.4353 L -28.4716,63.9482
 L -29.5833,63.4415 L -30.686,62.9156 L -31.7793,62.3705 L -32.863,61.8063 L -33.9367,61.2234 L -35,60.6218
 L -36.0527,60.0017 L -37.0943,59.3634 L -38.1247,58.7069 L -39.1435,58.0326 L -40.1503,57.3406 L -41.145,56.6312
 L -42.127,55.9045 L -43.0963,55.1608 L -44.0524,54.4002 L -44.9951,53.6231 L -45.9241,52.8297 L -46.8391,52.0201
 L -47.7399,51.1947 L -48.6261,50.3538 L -49.4975,49.4975 L -50.3538,48.6261 L -51.1947,47.7399 L -52.0201,46.8391
 L -52.8297,45.9241 L -53.6231,44.9951 L -54.4002,44.0524 L -55.1608,43.0963 L -55.9045,42.127 L -56.6312,41.145
 L -57.3406,40.1503 L -58.0326,39.1435 L -58.7069,38.1247 L -59.3634,37.0943 L -60.0017,36.0527 L -60.6218,35
 L -61.2234,33.9367 L -61.8063,32.863 L -62.3705,31.7793 L -62.9156,30.686 L -63.4415,29.5833 L -63.9482,28.4716
 L -64.4353,27.3512 L -64.9029,26.2225 L -65.3506,25.0858 L -65.7785,23.9414 L -66.1863,22.7898 L -66.5739,21.6312
 L -66.9413,20.466 L -67.2883,19.2946 L -67.6148,18.1173 L -67.9207,16.9345 L -68.2059,15.7466 L -68.4703,14.5538
 L -68.7139,13.3566 L -68.9365,12.1554 L -69.1382,10.9504 L -69.3188,9.74211 L -69.4782,8.53085 L -69.6165,7.31699
 L -69.7336,6.10089 L -69.8295,4.88295 L -69.9041,3.66351 L -69.9574,2.44296 L -69.9893,1.22166 L -70,-0
 L -69.9893,-1.22166 L -69.9574,-2.44296 L -69.9041,-3.66351 L -69.8295,-4.88295 L -69.7336,-6.10089 L -69.6165,-7.31699
 L -69.4782,-8.53085 L -69.3188,-9.74211 L -69.1382,-10.9504 L -68.9365,-12.1554 L -68.7139,-13.3566 L -68.4703,-14.5538
 L -68.2059,-15.7466 L -67.9207,-16.9345 L -67.6148,-18.1173 L -67.2883,-19.2946 L -66.9413,-20.466 L -66.5739,-21.6312
 L -66.1863,-22.7898 L -65.7785,-23.9414 L -65.3506,-25.0858 L -64.9029,-26.2225 L -64.4353,-27.3512 L -63.9482,-28.4716
 L -63.4415,-29.5833 L -62.9156,-30.686 L -62.3705,-31.7793 L -61.8063,-32.863 L -61.2234,-33.9367 L -60.6218,-35
 L -60.0017,-36.0527 L -59.3634,-37.0943 L -58.7069,-38.1247 L -58.0326,-39.1435 L -57.3406,-40.1503 L -56.6312,-41.145
 L -55.9045,-42.127 L -55.1608,-43.0963 L -54.4002,-44.0524 L -53.6231,-44.9951 L -52.8297,-45.9241 L -52.0201,-46.8391
 L -51.1947,-47.7399 L -50.3538,-48.6261 L -49.4975,-49.4975 L -48.6261,-50.3538 L -47.7399,-51.1947 L -46.8391,-52.0201
 L -45.9241,-52.8297 L -44.9951,-53.6231 L -44.0524,-54.4002 L -43.0963,-55.1608 L -42.127,-55.9045 L -41.145,-56.6312
 L -40.1503,-57.3406 L -39.1435,-58.0326 L -38.1247,-58.7069 L -37.0943,-59.3634 L -36.0527,-60.0017 L -35,-60.6218
 L -33.9367,-61.2234 L -32.863,-61.8063 L -31.7793,-62.3705 L -30.686,-62.9156 L -29.5833,-63.4415 L -28.4716,-63.9482
 L -27.3512,-64.4353 L -26.2225,-64.9029 L -25.0858,-65.3506 L -23.9414,-65.7785 L -22.7898,-66.1863 L -21.6312,-66.5739
 L -20.466,-66.9413 L -19.2946,-67.2883 L -18.1173,-67.6148 L -16.9345,-67.9207 L -15.7466,-68.2059 L -14.5538,-68.4703
 L -13.3566,-68.7139 L -12.1554,-68.9365 L -10.9504,-69.1382 L -9.74211,-69.3188 L -8.53085,-69.4782 L -7.31699,-69.6165
 L -6.10089,-69.7336 L -4.88295,-69.8295 L -3.66351,-69.9041 L -2.44296,-69.9574 L -1.22166,-69.9893 L 0,-70
 L 1.22166,-69.9893 L 2.44296,-69.9574 L 3.66351,-69.9041 L 4.88295,-69.8295 L 6.10089,-69.7336 L 7.31699,-69.6165
 L 8.53085,-69.4782 L 9.74211,-69.3188 L 10.9504,-69.1382 L 12.1554,-68.9365 L 13.3566,-68.7139 L 14.5538,-68.4703
 L 15.7466,-68.2059 L 16.9345,-67.9207 L 18.1173,-67.6148 L 19.2946,-67.2883 L 20.466,-66.9413 L 21.6312,-66.5739
 L 22.7898,-66.1863 L 23.9414,-65.7785 L 25.0858,-65.3506 L 26.2225,-64.9029 L 27.3512,-64.4353 L 28.4716,-63.9482
 L 29.5833,-63.4415 L 30.686,-62.9156 L 31.7793,-62.3705 L 32.863,-61.8063 L 33.9367,-61.2234 L 35,-60.6218
 L 36.0527,-60.0017 L 37.0943,-59.3634 L 38.1247,-58.7069 L 39.1435,-58.0326 L 40.1503,-57.3406 L 41.145,-56.6312
 L 42.127,-55.9045 L 43.0963,-55.1608 L 44.0524,-54.4002 L 44.9951,-53.6231 L 45.9241,-52.8297 L 46.8391,-52.0201
 L 47.7399,-51.1947 L 48.6261,-50.3538 L 49.4975,-49.4975 L 50.3538,-48.6261 L 51.1947,-47.7399 L 52.0201,-46.8391
 L 52.8297,-45.9241 L 53.6231,-44.9951 L 54.4002,-44.0524 L 55.1608,-43.0963 L 55.9045,-42.127 L 56.6312,-41.145
 L 57.3406,-40.1503 L 58.0326,-39.1435 L 58.7069,-38.1247 L 59.3634,-37.0943 L 60.0017,-36.0527 L 60.6218,-35
 L 61.2234,-33.9367 L 61.8063,-32.863 L 62.3705,-31.7793 L 62.9156,-30.686 L 63.4415,-29.5833 L 63.9482,-28.4716
 L 64.4353,-27.3512 L 64.9029,-26.2225 L 65.3506,-25.0858 L 65.7785,-23.9414 L 66.1863,-22.7898 L 66.5739,-21.6312
 L 66.9413,-20.466 L 67.2883,-19.2946 L 67.6148,-18.1173 L 67.9207,-16.9345 L 68.2059,-15.7466 L 68.4703,-14.5538
 L 68.7139,-13.3566 L 68.9365,-12.1554 L 69.1382,-10.9504 L 69.3188,-9.74211 L 69.4782,-8.53085 L 69.6165,-7.31699
 L 69.7336,-6.10089 L 69.8295,-4.88295 L 69.9041,-3.66351 L 69.9574,-2.44296 L 69.9893,-1.22166 L 70,-0
 L 69.9893,1.22166 L 69.9574,2.44296 L 69.9041,3.66351 L 69.8295,4.88295 L 69.7336,6.10089 L 69.6165,7.31699
 L 69.4782,8.53085 L 69.3188,9.74211 L 69.1382,10.9504 L 68.9365,12.1554 L 68.7139,13.3566 L 68.4703,14.5538
 L 68.2059,15.7466 L 67.9207,16.9345 L 67.6148,18.1173 L 67.2883,19.2946 L 66.9413,20.466 L 66.5739,21.6312
 L 66.1863,22.7898 L 65.7785,23.9414 L 65.3506,25.0858 L 64.9029,26.2225 L 64.4353,27.3512 L 63.9482,28.4716
 L 63.4415,29.5833 L 62.9156,30.686 L 62.3705,31.7793 L 61.8063,32.863 L 61.2234,33.9367 L 60.6218,35
 L 60.0017,36.0527 L 59.3634,37.0943 L 58.7069,38.1247 L 58.0326,39.1435 L 57.3406,40.1503 L 56.6312,41.145
 L 55.9045,42.127 L 55.1608,43.0963 L 54.4002,44.0524 L 53.6231,44.9951 L 52.8297,45.9241 L 52.0201,46.8391
 L 51.1947,47.7399 L 50.3538,48.6261 L 49.4975,49.4975 L 48.6261,50.3538 L 47.7399,51.1947 L 46.8391,52.0201
 L 45.9241,52.8297 L 44.9951,53.6231 L 44.0524,54.4002 L 43.0963,55.1608 L 42.127,55.9045 L 41.145,56.6312
 L 40.1503,57.3406 L 39.1435,58.0326 L 38.1247,58.7069 L 37.0943,59.3634 L 36.0527,60.0017 L 35,60.6218
 L 33.9367,61.2234 L 32.863,61.8063 L 31.7793,62.3705 L 30.686,62.9156 L 29.5833,63.4415 L 28.4716,63.9482
 L 27.3512,64.4353 L 26.2225,64.9029 L 25.0858,65.3506 L 23.9414,65.7785 L 22.7898,66.1863 L 21.6312,66.5739
 L 20.466,66.9413 L 19.2946,67.2883 L 18.1173,67.6148 L 16.9345,67.9207 L 15.7466,68.2059 L 14.5538,68.4703
 L 13.3566,68.7139 L 12.1554,68.9365 L 10.9504,69.1382 L 9.74211,69.3188 L 8.53085,69.4782 L 7.31699,69.6165
 L 6.10089,69.7336 L 4.88295,69.8295 L 3.66351,69.9041 L 2.44296,69.9574 L 1.22166,69.9893 L 0,70
 z
M 36,-36 L -36,-36 L -36,36 L 36,36 z
M -0.279236,15.9976 L -0.55838,15.9902 L -0.837372,15.9781 L -1.11609,15.961 L -1.39449,15.9391 L -1.67245,15.9123
 L -1.94991,15.8807 L -2.22676,15.8443 L -2.50294,15.803 L -2.77837,15.7569 L -3.05293,15.706 L -3.32658,15.6504
 L -3.59921,15.5899 L -3.87074,15.5247 L -4.1411,15.4548 L -4.41019,15.3802 L -4.67793,15.3009 L -4.94426,15.2169
 L -5.20908,15.1283 L -5.47232,15.0351 L -5.73389,14.9373 L -5.9937,14.8349 L -6.25169,14.7281 L -6.50778,14.6167
 L -6.76189,14.5009 L -7.01393,14.3807 L -7.26384,14.2561 L -7.51154,14.1272 L -7.75694,13.9939 L -8,13.8564
 L -8.2406,13.7147 L -8.4787,13.5688 L -8.71422,13.4187 L -8.94708,13.2646 L -9.17722,13.1064 L -9.40456,12.9443
 L -9.62903,12.7782 L -9.85057,12.6082 L -10.0691,12.4343 L -10.2846,12.2567 L -10.4969,12.0753 L -10.7061,11.8903
 L -10.912,11.7016 L -11.1145,11.5094 L -11.3137,11.3137 L -11.5094,11.1145 L -11.7016,10.912 L -11.8903,10.7061
 L -12.0753,10.4969 L -12.2567,10.2846 L -12.4343,10.0691 L -12.6082,9.85057 L -12.7782,9.62903 L -12.9443,9.40456
 L -13.1064,9.17722 L -13.2646,8.94708 L -13.4187,8.71422 L -13.5688,8.4787 L -13.7147,8.2406 L -13.8564,8
 L -13.9939,7.75694 L -14.1272,7.51154 L -14.2561,7.26384 L -14.3807,7.01393 L -14.5009,6.76189 L -14.6167,6.50778
 L -14.7281,6.25169 L -14.8349,5.9937 L -14.9373,5.73389 L -15.0351,5.47232 L -15.1283,5.20908 L -15.2169,4.94426
 L -15.3009,4.67793 L -15.3802,4.41019 L -15.4548,4.1411 L -15.5247,3.87074 L -15.5899,3.59921 L -15.6504,3.32658
 L -15.706,3.05293 L -15.7569,2.77837 L -15.803,2.50294 L -15.8443,2.22676 L -15.8807,1.94991 L -15.9123,1.67245
 L -15.9391,1.39449 L -15.961,1.11609 L -15.9781,0.837372 L -15.9902,0.55838 L -15.9976,0.279236 L -16,-0
 L -15.9976,-0.279236 L -15.9902,-0.55838 L -15.9781,-0.837372 L -15.961,-1.11609 L -15.9391,-1.39449 L -15.9123,-1.67245
 L -15.8807,-1.94991 L -15.8443,-2.22676 L -15.803,-2.50294 L -15.7569,-2.77837 L -15.706,-3.05293 L -15.6504,-3.32658
 L -15.5899,-3.59921 L -15.5247,-3.87074 L -15.4548,-4.1411 L -15.3802,-4.41019 L -15.3009,-4.67793 L -15.2169,-4.94426
 L -15.1283,-5.20908 L -15.0351,-5.47232 L -14.9373,-5.73389 L -14.8349,-5.9937 L -14.7281,-6.25169 L -14.6167,-6.50778
 L -14.5009,-6.76189 L -14.3807,-7.01393 L -14.2561,-7.26384 L -14.1272,-7.51154 L -13.9939,-7.75694 L -13.8564,-7.99998
 L -13.7147,-8.2406 L -13.5688,-8.4787 L -13.4187,-8.71422 L -13.2646,-8.94708 L -13.1064,-9.17722 L -12.9443,-9.40456
 L -12.7782,-9.62903 L -12.6082,-9.85057 L -12.4343,-10.0691 L -12.2567,-10.2846 L -12.0753,-10.4969 L -11.8903,-10.7061
 L -11.7016,-10.912 L -11.5094,-11.1145 L -11.3137,-11.3137 L -11.1145,-11.5094 L -10.912,-11.7016 L -10.7061,-11.8903
 L -10.4969,-12.0753 L -10.2846,-12.2567 L -10.0691,-12.4343 L -9.85057,-12.6082 L -9.62903,-12.7782 L -9.40456,-12.9443
 L -9.17722,-13.1064 L -8.94708,-13.2646 L -8.71422,-13.4187 L -8.4787,-13.5688 L -8.2406,-13.7147 L -7.99998,-13.8564
 L -7.75694,-13.9939 L -7.51154,-14.1272 L -7.26384,-14.2561 L -7.01393,-14.3807 L -6.76189,-14.5009 L -6.50778,-14.6167
 L -6.25169,-14.7281 L -5.9937,-14.8349 L -5.73389,-14.9373 L -5.47232,-15.0351 L -5.20908,-15.1283 L -4.94426,-15.2169
 L -4.67793,-15.3009 L -4.41019,-15.3802 L -4.1411,-15.4548 L -3.87074,-15.5247 L -3.59921,-15.5899 L -3.32658,-15.6504
 L -3.05293,-15.706 L -2.77837,-15.7569 L -2.50294,-15.803 L -2.22676,-15.8443 L -1.94991,-15.8807 L -1.67245,-15.9123
 L -1.39449,-15.9391 L -1.11609,-15.961 L -0.837372,-15.9781 L -0.55838,-15.9902 L -0.279236,-15.9976 L 0,-16
 L 0.279236,-15.9976 L 0.55838,-15.9902 L 0.837372,-15.9781 L 1.11609,-15.961 L 1.39449,-15.9391 L 1.67245,-15.9123
 L 1.94991,-15.8807 L 2.22676,-15.8443 L 2.50294,-15.803 L 2.77837,-15.7569 L 3.05293,-15.706 L 3.32658,-15.6504
 L 3.59921,-15.5899 L 3.87074,-15.5247 L 4.1411,-15.4548 L 4.41019,-15.3802 L 4.67793,-15.3009 L 4.94426,-15.2169
 L 5.20908,-15.1283 L 5.47232,-15.0351 L 5.73389,-14.9373 L 5.9937,-14.8349 L 6.25169,-14.7281 L 6.50778,-14.6167
 L 6.76189,-14.5009 L 7.01393,-14.3807 L 7.26384,-14.2561 L 7.51154,-14.1272 L 7.75694,-13.9939 L 8,-13.8564
 L 8.2406,-13.7147 L 8.4787,-13.5688 L 8.71422,-13.4187 L 8.94708,-13.2646 L 9.17722,-13.1064 L 9.40456,-12.9443
 L 9.62903,-12.7782 L 9.85057,-12.6082 L 10.0691,-12.4343 L 10.2846,-12.2567 L 10.4969,-12.0753 L 10.7061,-11.8903
 L 10.912,-11.7016 L 11.1145,-11.5094 L 11.3137,-11.3137 L 11.5094,-11.1145 L 11.7016,-10.912 L 11.8903,-10.7061
 L 12.0753,-10.4969 L 12.2567,-10.2846 L 12.4343,-10.0691 L 12.6082,-9.85057 L 12.7782,-9.62903 L 12.9443,-9.40456
 L 13.1064,-9.17722 L 13.2646,-8.94708 L 13.4187,-8.71422 L 13.5688,-8.4787 L 13.7147,-8.2406 L 13.8564,-7.99998
 L 13.9939,-7.75694 L 14.1272,-7.51154 L 14.2561,-7.26384 L 14.3807,-7.01393 L 14.5009,-6.76189 L 14.6167,-6.50778
 L 14.7281,-6.25169 L 14.8349,-5.9937 L 14.9373,-5.73389 L 15.0351,-5.47232 L 15.1283,-5.20908 L 15.2169,-4.94426
 L 15.3009,-4.67793 L 15.3802,-4.41019 L 15.4548,-4.1411 L 15.5247,-3.87074 L 15.5899,-3.59921 L 15.6504,-3.32658
 L 15.706,-3.05293 L 15.7569,-2.77837 L 15.803,-2.50294 L 15.8443,-2.22676 L 15.8807,-1.94991 L 15.9123,-1.67245
 L 15.9391,-1.39449 L 15.961,-1.11609 L 15.9781,-0.837372 L 15.9902,-0.55838 L 15.9976,-0.279236 L 16,-0
 L 15.9976,0.279236 L 15.9902,0.55838 L 15.9781,0.837372 L 15.961,1.11609 L 15.9391,1.39449 L 15.9123,1.67245
 L 15.8807,1.94991 L 15.8443,2.22676 L 15.803,2.50294 L 15.7569,2.77837 L 15.706,3.05293 L 15.6504,3.32658
 L 15.5899,3.59921 L 15.5247,3.87074 L 15.4548,4.1411 L 15.3802,4.41019 L 15.3009,4.67793 L 15.2169,4.94426
 L 15.1283,5.20908 L 15.0351,5.47232 L 14.9373,5.73389 L 14.8349,5.9937 L 14.7281,6.25169 L 14.6167,6.50778
 L 14.5009,6.76189 L 14.3807,7.01393 L 14.2561,7.26384 L 14.1272,7.51154 L 13.9939,7.75694 L 13.8564,8
 L 13.7147,8.2406 L 13.5688,8.4787 L 13.4187,8.71422 L 13.2646,8.94708 L 13.1064,9.17722 L 12.9443,9.40456
 L 12.7782,9.62903 L 12.6082,9.85057 L 12.4343,10.0691 L 12.2567,10.2846 L 12.0753,10.4969 L 11.8903,10.7061
 L 11.7016,10.912 L 11.5094,11.1145 L 11.3137,11.3137 L 11.1145,11.5094 L 10.912,11.7016 L 10.7061,11.8903
 L 10.4969,12.0753 L 10.2846,12.2567 L 10.0691,12.4343 L 9.85057,12.6082 L 9.62903,12.7782 L 9.40456,12.9443
 L 9.17722,13.1064 L 8.94708,13.2646 L 8.71422,13.4187 L 8.4787,13.5688 L 8.2406,13.7147 L 8,13.8564
 L 7.75694,13.9939 L 7.51154,14.1272 L 7.26384,14.2561 L 7.01393,14.3807 L 6.76189,14.5009 L 6.50778,14.6167
 L 6.25169,14.7281 L 5.9937,14.8349 L 5.73389,14.9373 L 5.47232,15.0351 L 5.20908,15.1283 L 4.94426,15.2169
 L 4.67793,15.3009 L 4.41019,15.3802 L 4.1411,15.4548 L 3.87074,15.5247 L 3.59921,15.5899 L 3.32658,15.6504
 L 3.05293,15.706 L 2.77837,15.7569 L 2.50294,15.803 L 2.22676,15.8443 L 1.94991,15.8807 L 1.67245,15.9123
 L 1.39449,15.9391 L 1.11609,15.961 L 0.837372,15.9781 L 0.55838,15.9902 L 0.279236,15.9976 L 0,16
 z
" stroke="black" fill="lightgray" stroke-width="0.5"/>
</svg>
