<?xml version="1.0" standalone="no"?>
<!DOCTYPE svg PUBLIC "-//W3C//DTD SVG 1.1//EN" "http://www.w3.org/Graphics/SVG/1.1/DTD/svg11.dtd">
<svg width="28mm" height="28mm" viewBox="-14 -14 28 28" xmlns="http://www.w3.org/2000/svg" version="1.1">
<title>OpenSCAD Model</title>
<path d="
M 0.244324,13.9979 L 0.488586,13.9915 L 0.732697,13.9808 L 0.976578,13.9659 L 1.22017,13.9467 L 1.46339,13.9233
 L 1.70616,13.8956 L 1.94841,13.8637 L 2.19008,13.8276 L 2.43106,13.7873 L 2.67133,13.7428 L 2.91075,13.6941
 L 3.14931,13.6412 L 3.3869,13.5841 L 3.62346,13.5229 L 3.85892,13.4577 L 4.0932,13.3883 L 4.32623,13.3148
 L 4.55795,13.2373 L 4.78827,13.1557 L 5.01715,13.0701 L 5.24449,12.9806 L 5.47023,12.8871 L 5.69431,12.7896
 L 5.91664,12.6883 L 6.13719,12.5831 L 6.35587,12.4741 L 6.5726,12.3613 L 6.78732,12.2447 L 7,12.1243
 L 7.21053,12.0003 L 7.41887,11.8727 L 7.62494,11.7414 L 7.82869,11.6065 L 8.03006,11.4681 L 8.22899,11.3262
 L 8.4254,11.1809 L 8.61925,11.0322 L 8.81047,10.88 L 8.99902,10.7246 L 9.18481,10.5659 L 9.36783,10.404
 L 9.54797,10.2389 L 9.7252,10.0708 L 9.89949,9.89949 L 10.0708,9.7252 L 10.2389,9.54797 L 10.404,9.36783
 L 10.5659,9.18481 L 10.7246,8.99902 L 10.88,8.81047 L 11.0322,8.61925 L 11.1809,8.4254 L 11.3262,8.22899
 L 11.4681,8.03006 L 11.6065,7.82869 L 11.7414,7.62494 L 11.8727,7.41887 L 12.0003,7.21053 L 12.1243,7
 L 12.2447,6.78732 L 12.3613,6.5726 L 12.4741,6.35587 L 12.5831,6.13719 L 12.6883,5.91664 L 12.7896,5.69431
 L 12.8871,5.47023 L 12.9806,5.24449 L 13.0701,5.01715 L 13.1557,4.78827 L 13.2373,4.55795 L 13.3148,4.32623
 L 13.3883,4.0932 L 13.4577,3.85892 L 13.5229,3.62346 L 13.5841,3.3869 L 13.6412,3.14931 L 13.6941,2.91075
 L 13.7428,2.67133 L 13.7873,2.43106 L 13.8276,2.19008 L 13.8637,1.94841 L 13.8956,1.70616 L 13.9233,1.46339
 L 13.9467,1.22017 L 13.9659,0.976578 L 13.9808,0.732697 L 13.9915,0.488586 L 13.9979,0.244324 L 14,-0
 L 13.9979,-0.244324 L 13.9915,-0.488586 L 13.9808,-0.732697 L 13.9659,-0.976578 L 13.9467,-1.22017 L 13.9233,-1.46339
 L 13.8956,-1.70616 L 13.8637,-1.94841 L 13.8276,-2.19008 L 13.7873,-2.43106 L 13.7428,-2.67133 L 13.6941,-2.91075
 L 13.6412,-3.14931 L 13.5841,-3.3869 L 13.5229,-3.62346 L 13.4577,-3.85892 L 13.3883,-4.0932 L 13.3148,-4.32623
 L 13.2373,-4.55795 L 13.1557,-4.78827 L 13.0701,-5.01715 L 12.9806,-5.24449 L 12.8871,-5.47023 L 12.7896,-5.69431
 L 12.6883,-5.91664 L 12.5831,-6.13719 L 12.4741,-6.35587 L 12.3613,-6.5726 L 12.2447,-6.78732 L 12.1243,-6.99998
 L 12.0003,-7.21053 L 11.8727,-7.41887 L 11.7414,-7.62494 L 11.6065,-7.82869 L 11.4681,-8.03006 L 11.3262,-8.22899
 L 11.1809,-8.4254 L 11.0322,-8.61925 L 10.88,-8.81047 L 10.7246,-8.99902 L 10.5659,-9.18481 L 10.404,-9.36783
 L 10.2389,-9.54797 L 10.0708,-9.7252 L 9.89949,-9.89949 L 9.7252,-10.0708 L 9.54797,-10.2389 L 9.36783,-10.404
 L 9.18481,-10.5659 L 8.99902,-10.7246 L 8.81047,-10.88 L 8.61925,-11.0322 L 8.4254,-11.1809 L 8.22899,-11.3262
 L 8.03006,-11.4681 L 7.82869,-11.6065 L 7.62494,-11.7414 L 7.41887,-11.8727 L 7.21053,-12.0003 L 7,-12.1243
 L 6.78732,-12.2447 L 6.5726,-12.3613 L 6.35587,-12.4741 L 6.13719,-12.5831 L 5.91664,-12.6883 L 5.69431,-12.7896
 L 5.47023,-12.8871 L 5.24449,-12.9806 L 5.01715,-13.0701 L 4.78827,-13.1557 L 4.55795,-13.2373 L 4.32623,-13.3148
 L 4.0932,-13.3883 L 3.85892,-13.4577 L 3.62346,-13.5229 L 3.3869,-13.5841 L 3.14931,-13.6412 L 2.91075,-13.6941
 L 2.67133,-13.7428 L 2.43106,-13.7873 L 2.19008,-13.8276 L 1.94841,-13.8637 L 1.70616,-13.8956 L 1.46339,-13.9233
 L 1.22017,-13.9467 L 0.976578,-13.9659 L 0.732697,-13.9808 L 0.488586,-13.9915 L 0.244324,-13.9979 L 0,-14
 L -0.244324,-13.9979 L -0.488586,-13.9915 L -0.732697,-13.9808 L -0.976578,-13.9659 L -1.22017,-13.9467 L -1.46339,-13.9233
 L -1.70616,-13.8956 L -1.94841,-13.8637 L -2.19008,-13.8276 L -2.43106,-13.7873 L -2.67133,-13.7428 L -2.91075,-13.6941
 L -3.14931,-13.6412 L -3.3869,-13.5841 L -3.62346,-13.5229 L -3.85892,-13.4577 L -4.0932,-13.3883 L -4.32623,-13.3148
 L -4.55795,-13.2373 L -4.78827,-13.1557 L -5.01715,-13.0701 L -5.24449,-12.9806 L -5.47023,-12.8871 L -5.69431,-12.7896
 L -5.91664,-12.6883 L -6.13719,-12.5831 L -6.35587,-12.4741 L -6.5726,-12.3613 L -6.78732,-12.2447 L -6.99998,-12.1243
 L -7.21053,-12.0003 L -7.41887,-11.8727 L -7.62494,-11.7414 L -7.82869,-11.6065 L -8.03006,-11.4681 L -8.22899,-11.3262
 L -8.4254,-11.1809 L -8.61925,-11.0322 L -8.81047,-10.88 L -8.99902,-10.7246 L -9.18481,-10.5659 L -9.36783,-10.404
 L -9.54797,-10.2389 L -9.7252,-10.0708 L -9.89949,-9.89949 L -10.0708,-9.7252 L -10.2389,-9.54797 L -10.404,-9.36783
 L -10.5659,-9.18481 L -10.7246,-8.99902 L -10.88,-8.81047 L -11.0322,-8.61925 L -11.1809,-8.4254 L -11.3262,-8.22899
 L -11.4681,-8.03006 L -11.6065,-7.82869 L -11.7414,-7.62494 L -11.8727,-7.41887 L -12.0003,-7.21053 L -12.1243,-6.99998
 L -12.2447,-6.78732 L -12.3613,-6.5726 L -12.4741,-6.35587 L -12.5831,-6.13719 L -12.6883,-5.91664 L -12.7896,-5.69431
 L -12.8871,-5.47023 L -12.9806,-5.24449 L -13.0701,-5.01715 L -13.1557,-4.78827 L -13.2373,-4.55795 L -13.3148,-4.32623
 L -13.3883,-4.0932 L -13.4577,-3.85892 L -13.5229,-3.62346 L -13.5841,-3.3869 L -13.6412,-3.14931 L -13.6941,-2.91075
 L -13.7428,-2.67133 L -13.7873,-2.43106 L -13.8276,-2.19008 L -13.8637,-1.94841 L -13.8956,-1.70616 L -13.9233,-1.46339
 L -13.9467,-1.22017 L -13.9659,-0.976578 L -13.9808,-0.732697 L -13.9915,-0.488586 L -13.9979,-0.244324 L -14,-0
 L -13.9979,0.244324 L -13.9915,0.488586 L -13.9808,0.732697 L -13.9659,0.976578 L -13.9467,1.22017 L -13.9233,1.46339
 L -13.8956,1.70616 L -13.8637,1.94841 L -13.8276,2.19008 L -13.7873,2.43106 L -13.7428,2.67133 L -13.6941,2.91075
 L -13.6412,3.14931 L -13.5841,3.3869 L -13.5229,3.62346 L -13.4577,3.85892 L -13.3883,4.0932 L -13.3148,4.32623
 L -13.2373,4.55795 L -13.1557,4.78827 L -13.0701,5.01715 L -12.9806,5.24449 L -12.8871,5.47023 L -12.7896,5.69431
 L -12.6883,5.91664 L -12.5831,6.13719 L -12.4741,6.35587 L -12.3613,6.5726 L -12.2447,6.78732 L -12.1243,7
 L -12.0003,7.21053 L -11.8727,7.41887 L -11.7414,7.62494 L -11.6065,7.82869 L -11.4681,8.03006 L -11.3262,8.22899
 L -11.1809,8.4254 L -11.0322,8.61925 L -10.88,8.81047 L -10.7246,8.99902 L -10.5659,9.18481 L -10.404,9.36783
 L -10.2389,9.54797 L -10.0708,9.7252 L -9.89949,9.89949 L -9.7252,10.0708 L -9.54797,10.2389 L -9.36783,10.404
 L -9.18481,10.5659 L -8.99902,10.7246 L -8.81047,10.88 L -8.61925,11.0322 L -8.4254,11.1809 L -8.22899,11.3262
 L -8.03006,11.4681 L -7.82869,11.6065 L -7.62494,11.7414 L -7.41887,11.8727 L -7.21053,12.0003 L -7,12.1243
 L -6.78732,12.2447 L -6.5726,12.3613 L -6.35587,12.4741 L -6.13719,12.5831 L -5.91664,12.6883 L -5.69431,12.7896
 L -5.47023,12.8871 L -5.24449,12.9806 L -5.01715,13.0701 L -4.78827,13.1557 L -4.55795,13.2373 L -4.32623,13.3148
 L -4.0932,13.3883 L -3.85892,13.4577 L -3.62346,13.5229 L -3.3869,13.5841 L -3.14931,13.6412 L -2.91075,13.6941
 L -2.67133,13.7428 L -2.43106,13.7873 L -2.19008,13.8276 L -1.94841,13.8637 L -1.70616,13.8956 L -1.46339,13.9233
 L -1.22017,13.9467 L -0.976578,13.9659 L -0.732697,13.9808 L -0.488586,13.9915 L -0.244324,13.9979 L 0,14
 z
M -0.128265,7.34888 L -0.2565,7.34552 L -0.384659,7.33992 L -0.512695,7.33209 L -0.640594,7.32202 L -0.76828,7.30972
 L -0.895737,7.29521 L -1.02292,7.27846 L -1.14978,7.25951 L -1.27631,7.23833 L -1.40244,7.21495 L -1.52814,7.18938
 L -1.65338,7.16161 L -1.77812,7.13167 L -1.90231,7.09955 L -2.02592,7.06526 L -2.14893,7.02884 L -2.27127,6.99026
 L -2.39291,6.94955 L -2.51384,6.90674 L -2.634,6.8618 L -2.75336,6.81479 L -2.87187,6.7657 L -2.9895,6.71455
 L -3.10623,6.66136 L -3.22202,6.60612 L -3.33682,6.54889 L -3.45061,6.48965 L -3.56334,6.42845 L -3.67499,6.36528
 L -3.78552,6.30017 L -3.8949,6.23314 L -4.00308,6.16422 L -4.11006,6.09341 L -4.21577,6.02077 L -4.32022,5.94627
 L -4.42334,5.86996 L -4.5251,5.79187 L -4.6255,5.71202 L -4.72449,5.63042 L -4.82202,5.5471 L -4.91811,5.46211
 L -5.01268,5.37544 L -5.10573,5.28714 L -5.19722,5.19722 L -5.28714,5.10573 L -5.37544,5.01268 L -5.46211,4.91811
 L -5.5471,4.82202 L -5.63042,4.72449 L -5.71202,4.6255 L -5.79187,4.5251 L -5.86996,4.42334 L -5.94627,4.32022
 L -6.02077,4.21577 L -6.09341,4.11006 L -6.16422,4.00308 L -6.23314,3.8949 L -6.30017,3.78552 L -6.36528,3.67499
 L -6.42845,3.56334 L -6.48965,3.45061 L -6.54889,3.33682 L -6.60612,3.22202 L -6.66136,3.10623 L -6.71455,2.9895
 L -6.7657,2.87187 L -6.81479,2.75336 L -6.8618,2.634 L -6.90674,2.51384 L -6.94955,2.39291 L -6.99026,2.27127
 L -7.02884,2.14893 L -7.06526,2.02592 L -7.09955,1.90231 L -7.13167,1.77812 L -7.16161,1.65338 L -7.18938,1.52814
 L -7.21495,1.40244 L -7.23833,1.27631 L -7.25951,1.14978 L -7.27846,1.02292 L -7.29521,0.895737 L -7.30972,0.76828
 L -7.32202,0.640594 L -7.33209,0.512695 L -7.33992,0.384659 L -7.34552,0.2565 L -7.34888,0.128265 L -7.34999,-0
 L -7.34888,-0.128265 L -7.34552,-0.2565 L -7.33992,-0.384659 L -7.33209,-0.512695 L -7.32202,-0.640594 L -7.30972,-0.76828
 L -7.29521,-0.895737 L -7.27846,-1.02292 L -7.25951,-1.14978 L -7.23833,-1.27631 L -7.21495,-1.40244 L -7.18938,-1.52814
 L -7.16161,-1.65338 L -7.13167,-1.77812 L -7.09955,-1.90231 L -7.06526,-2.02592 L -7.02884,-2.14893 L -6.99026,-2.27127
 L -6.94955,-2.39291 L -6.90674,-2.51384 L -6.8618,-2.634 L -6.81479,-2.75336 L -6.7657,-2.87187 L -6.71455,-2.9895
 L -6.66136,-3.10623 L -6.60612,-3.22202 L -6.54889,-3.33682 L -6.48965,-3.45061 L -6.42845,-3.56334 L -6.36528,-3.67499
 L -6.30017,-3.78552 L -6.23314,-3.8949 L -6.16422,-4.00308 L -6.09341,-4.11006 L -6.02077,-4.21577 L -5.94627,-4.32022
 L -5.86996,-4.42334 L -5.79187,-4.5251 L -5.71202,-4.6255 L -5.63042,-4.72449 L -5.5471,-4.82202 L -5.46211,-4.91811
 L -5.37544,-5.01268 L -5.28714,-5.10573 L -5.19722,-5.19722 L -5.10573,-5.28714 L -5.01268,-5.37544 L -4.91811,-5.46211
 L -4.82202,-5.5471 L -4.72449,-5.63042 L -4.6255,-5.71202 L -4.5251,-5.79187 L -4.42334,-5.86996 L -4.32022,-5.94627
 L -4.21577,-6.02077 L -4.11006,-6.09341 L -4.00308,-6.16422 L -3.8949,-6.23314 L -3.78552,-6.30017 L -3.67499,-6.36528
 L -3.56334,-6.42845 L -3.45061,-6.48965 L -3.33682,-6.54889 L -3.22202,-6.60612 L -3.10623,-6.66136 L -2.9895,-6.71455
 L -2.87187,-6.7657 L -2.75336,-6.81479 L -2.634,-6.8618 L -2.51384,-6.90674 L -2.39291,-6.94955 L -2.27127,-6.99026
 L -2.14893,-7.02884 L -2.02592,-7.06526 L -1.90231,-7.09955 L -1.77812,-7.13167 L -1.65338,-7.16161 L -1.52814,-7.18938
 L -1.40244,-7.21495 L -1.27631,-7.23833 L -1.14978,-7.25951 L -1.02292,-7.27846 L -0.895737,-7.29521 L -0.76828,-7.30972
 L -0.640594,-7.32202 L -0.512695,-7.33209 L -0.384659,-7.33992 L -0.2565,-7.34552 L -0.128265,-7.34888 L 0,-7.34999
 L 0.128265,-7.34888 L 0.2565,-7.34552 L 0.384659,-7.33992 L 0.512695,-7.33209 L 0.640594,-7.32202 L 0.76828,-7.30972
 L 0.895737,-7.29521 L 1.02292,-7.27846 L 1.14978,-7.25951 L 1.27631,-7.23833 L 1.40244,-7.21495 L 1.52814,-7.18938
 L 1.65338,-7.16161 L 1.77812,-7.13167 L 1.90231,-7.09955 L 2.02592,-7.06526 L 2.14893,-7.02884 L 2.27127,-6.99026
 L 2.39291,-6.94955 L 2.51384,-6.90674 L 2.634,-6.8618 L 2.75336,-6.81479 L 2.87187,-6.7657 L 2.9895,-6.71455
 L 3.10623,-6.66136 L 3.22202,-6.60612 L 3.33682,-6.54889 L 3.45061,-6.48965 L 3.56334,-6.42845 L 3.67499,-6.36528
 L 3.78552,-6.30017 L 3.8949,-6.23314 L 4.00308,-6.16422 L 4.11006,-6.09341 L 4.21577,-6.02077 L 4.32022,-5.94627
 L 4.42334,-5.86996 L 4.5251,-5.79187 L 4.6255,-5.71202 L 4.72449,-5.63042 L 4.82202,-5.5471 L 4.91811,-5.46211
 L 5.01268,-5.37544 L 5.10573,-5.28714 L 5.19722,-5.19722 L 5.28714,-5.10573 L 5.37544,-5.01268 L 5.46211,-4.91811
 L 5.5471,-4.82202 L 5.63042,-4.72449 L 5.71202,-4.6255 L 5.79187,-4.5251 L 5.86996,-4.42334 L 5.94627,-4.32022
 L 6.02077,-4.21577 L 6.09341,-4.11006 L 6.16422,-4.00308 L 6.23314,-3.8949 L 6.30017,-3.78552 L 6.36528,-3.67499
 L 6.42845,-3.56334 L 6.48965,-3.45061 L 6.54889,-3.33682 L 6.60612,-3.22202 L 6.66136,-3.10623 L 6.71455,-2.9895
 L 6.7657,-2.87187 L 6.81479,-2.75336 L 6.8618,-2.634 L 6.90674,-2.51384 L 6.94955,-2.39291 L 6.99026,-2.27127
 L 7.02884,-2.14893 L 7.06526,-2.02592 L 7.09955,-1.90231 L 7.13167,-1.77812 L 7.16161,-1.65338 L 7.18938,-1.52814
 L 7.21495,-1.40244 L 7.23833,-1.27631 L 7.25951,-1.14978 L 7.27846,-1.02292 L 7.29521,-0.895737 L 7.30972,-0.76828
 L 7.32202,-0.640594 L 7.33209,-0.512695 L 7.33992,-0.384659 L 7.34552,-0.2565 L 7.34888,-0.128265 L 7.34999,-0
 L 7.34888,0.128265 L 7.34552,0.2565 L 7.33992,0.384659 L 7.33209,0.512695 L 7.32202,0.640594 L 7.30972,0.76828
 L 7.29521,0.895737 L 7.27846,1.02292 L 7.25951,1.14978 L 7.23833,1.27631 L 7.21495,1.40244 L 7.18938,1.52814
 L 7.16161,1.65338 L 7.13167,1.77812 L 7.09955,1.90231 L 7.06526,2.02592 L 7.02884,2.14893 L 6.99026,2.27127
 L 6.94955,2.39291 L 6.90674,2.51384 L 6.8618,2.634 L 6.81479,2.75336 L 6.7657,2.87187 L 6.71455,2.9895
 L 6.66136,3.10623 L 6.60612,3.22202 L 6.54889,3.33682 L 6.48965,3.45061 L 6.42845,3.56334 L 6.36528,3.67499
 L 6.30017,3.78552 L 6.23314,3.8949 L 6.16422,4.00308 L 6.09341,4.11006 L 6.02077,4.21577 L 5.94627,4.32022
 L 5.86996,4.42334 L 5.79187,4.5251 L 5.71202,4.6255 L 5.63042,4.72449 L 5.5471,4.82202 L 5.46211,4.91811
 L 5.37544,5.01268 L 5.28714,5.10573 L 5.19722,5.19722 L 5.10573,5.28714 L 5.01268,5.37544 L 4.91811,5.46211
 L 4.82202,5.5471 L 4.72449,5.63042 L 4.6255,5.71202 L 4.5251,5.79187 L 4.42334,5.86996 L 4.32022,5.94627
 L 4.21577,6.02077 L 4.11006,6.09341 L 4.00308,6.16422 L 3.8949,6.23314 L 3.78552,6.30017 L 3.67499,6.36528
 L 3.56334,6.42845 L 3.45061,6.48965 L 3.33682,6.54889 L 3.22202,6.60612 L 3.10623,6.66136 L 2.9895,6.71455
 L 2.87187,6.7657 L 2.75336,6.81479 L 2.634,6.8618 L 2.51384,6.90674 L 2.39291,6.94955 L 2.27127,6.99026
 L 2.14893,7.02884 L 2.02592,7.06526 L 1.90231,7.09955 L 1.77812,7.13167 L 1.65338,7.16161 L 1.52814,7.18938
 L 1.40244,7.21495 L 1.27631,7.23833 L 1.14978,7.25951 L 1.02292,7.27846 L 0.895737,7.29521 L 0.76828,7.30972
 L 0.640594,7.32202 L 0.512695,7.33209 L 0.384659,7.33992 L 0.2565,7.34552 L 0.128265,7.34888 L 0,7.34999
 z
M 10.0698,1.99878 L 9.93019,1.99878 L 9.79094,1.98903 L 9.65269,1.9696 L 9.51614,1.94058 L 9.38196,1.9021
 L 9.25078,1.85435 L 9.12325,1.79758 L 9,1.73204 L 8.88161,1.65807 L 8.76868,1.57602 L 8.66173,1.48628
 L 8.56131,1.38931 L 8.46791,1.28557 L 8.38196,1.17557 L 8.30389,1.05983 L 8.2341,0.938934 L 8.1729,0.813461
 L 8.12061,0.684036 L 8.07747,0.55127 L 8.0437,0.415817 L 8.01945,0.278336 L 8.00487,0.139511 L 8,-0
 L 8.00487,-0.139511 L 8.01945,-0.278336 L 8.0437,-0.415817 L 8.07747,-0.55127 L 8.12061,-0.684036 L 8.1729,-0.813461
 L 8.2341,-0.938934 L 8.30389,-1.05983 L 8.38196,-1.17557 L 8.46791,-1.28557 L 8.56131,-1.38931 L 8.66173,-1.48628
 L 8.76868,-1.57602 L 8.88161,-1.65807 L 9,-1.73204 L 9.12325,-1.79758 L 9.25078,-1.85435 L 9.38196,-1.9021
 L 9.51614,-1.94058 L 9.65269,-1.9696 L 9.79094,-1.98903 L 9.93019,-1.99878 L 10.0698,-1.99878 L 10.209,-1.98903
 L 10.3473,-1.9696 L 10.4838,-1.94058 L 10.618,-1.9021 L 10.7492,-1.85435 L 10.8767,-1.79758 L 11,-1.73204
 L 11.1184,-1.65807 L 11.2313,-1.57602 L 11.3383,-1.48628 L 11.4387,-1.38931 L 11.5321,-1.28557 L 11.618,-1.17557
 L 11.6961,-1.05983 L 11.7659,-0.938934 L 11.8271,-0.813461 L 11.8794,-0.684036 L 11.9225,-0.55127 L 11.9563,-0.415817
 L 11.9805,-0.278336 L 11.9951,-0.139511 L 12,-0 L 11.9951,0.139511 L 11.9805,0.278336 L 11.9563,0.415817
 L 11.9225,0.55127 L 11.8794,0.684036 L 11.8271,0.813461 L 11.7659,0.938934 L 11.6961,1.05983 L 11.618,1.17557
 L 11.5321,1.28557 L 11.4387,1.38931 L 11.3383,1.48628 L 11.2313,1.57602 L 11.1184,1.65807 L 11,1.73204
 L 10.8767,1.79758 L 10.7492,1.85435 L 10.618,1.9021 L 10.4838,1.94058 L 10.3473,1.9696 L 10.209,1.98903
 z
M -9.93019,1.99878 L -10.0698,1.99878 L -10.209,1.98903 L -10.3473,1.9696 L -10.4838,1.94058 L -10.618,1.9021
 L -10.7492,1.85435 L -10.8767,1.79758 L -11,1.73204 L -11.1184,1.65807 L -11.2313,1.57602 L -11.3383,1.48628
 L -11.4387,1.38931 L -11.5321,1.28557 L -11.618,1.17557 L -11.6961,1.05983 L -11.7659,0.938934 L -11.8271,0.813461
 L -11.8794,0.684036 L -11.9225,0.55127 L -11.9563,0.415817 L -11.9805,0.278336 L -11.9951,0.139511 L -12,-0
 L -11.9951,-0.139511 L -11.9805,-0.278336 L -11.9563,-0.415817 L -11.9225,-0.55127 L -11.8794,-0.684036 L -11.8271,-0.813461
 L -11.7659,-0.938934 L -11.6961,-1.05983 L -11.618,-1.17557 L -11.5321,-1.28557 L -11.4387,-1.38931 L -11.3383,-1.48628
 L -11.2313,-1.57602 L -11.1184,-1.65807 L -11,-1.73204 L -10.8767,-1.79758 L -10.7492,-1.85435 L -10.618,-1.9021
 L -10.4838,-1.94058 L -10.3473,-1.9696 L -10.209,-1.98903 L -10.0698,-1.99878 L -9.93019,-1.99878 L -9.79094,-1.98903
 L -9.65269,-1.9696 L -9.51614,-1.94058 L -9.38196,-1.9021 L -9.25078,-1.85435 L -9.12325,-1.79758 L -9,-1.73204
 L -8.88161,-1.65807 L -8.76868,-1.57602 L -8.66173,-1.48628 L -8.56131,-1.38931 L -8.46791,-1.28557 L -8.38196,-1.17557
 L -8.30389,-1.05983 L -8.2341,-0.938934 L -8.1729,-0.813461 L -8.12061,-0.684036 L -8.07747,-0.55127 L -8.0437,-0.415817
 L -8.01945,-0.278336 L -8.00487,-0.139511 L -8,-0 L -8.00487,0.139511 L -8.01945,0.278336 L -8.0437,0.415817
 L -8.07747,0.55127 L -8.12061,0.684036 L -8.1729,0.813461 L -8.2341,0.938934 L -8.30389,1.05983 L -8.38196,1.17557
 L -8.46791,1.28557 L -8.56131,1.38931 L -8.66173,1.48628 L -8.76868,1.57602 L -8.88161,1.65807 L -9,1.73204
 L -9.12325,1.79758 L -9.25078,1.85435 L -9.38196,1.9021 L -9.51614,1.94058 L -9.65269,1.9696 L -9.79094,1.98903
 z
" stroke="black" fill="lightgray" stroke-width="0.5"/>
</svg>
